HIERARCHY
ROOT ui
{
	 OFFSET 0 0 0
	 CHANNELS 3 XPosition YPosition Z Position
	 EndSite
	 {
	 OFFSET 0 -1 0
	 }
}
ROOT li
{
	 OFFSET 0 0 0
	 CHANNELS 3 XPosition YPosition Z Position
	 EndSite
	 {
	 OFFSET 0 -1 0
	 }
}
ROOT ul
{
	 OFFSET 0 0 0
	 CHANNELS 3 XPosition YPosition Z Position
	 EndSite
	 {
	 OFFSET 0 -1 0
	 }
}
ROOT ll
{
	 OFFSET 0 0 0
	 CHANNELS 3 XPosition YPosition Z Position
	 EndSite
	 {
	 OFFSET 0 -1 0
	 }
}
ROOT tt
{
	 OFFSET 0 0 0
	 CHANNELS 3 XPosition YPosition Z Position
	 EndSite
	 {
	 OFFSET 0 -1 0
	 }
}
ROOT tb
{
	 OFFSET 0 0 0
	 CHANNELS 3 XPosition YPosition Z Position
	 EndSite
	 {
	 OFFSET 0 -1 0
	 }
}
ROOT td
{
	 OFFSET 0 0 0
	 CHANNELS 3 XPosition YPosition Z Position
	 EndSite
	 {
	 OFFSET 0 -1 0
	 }
}
ROOT v
{
	 OFFSET 0 0 0
	 CHANNELS 3 XPosition YPosition Z Position
	 EndSite
	 {
	 OFFSET 0 -1 0
	 }
}
ROOT bn
{
	 OFFSET 0 0 0
	 CHANNELS 3 XPosition YPosition Z Position
	 EndSite
	 {
	 OFFSET 0 -1 0
	 }
}
MOTION
Frames: 32
Frame Time: 0.002
0.013108641624450683	-0.0011358959674835204	0		0.41519970703125	-2.323075439453125	0		-1.0675205078125	-0.03780495071411133	0		-0.8753439331054688	-2.281758056640625	0		1.3926893310546875	-0.5337664184570312	0		2.865814697265625	0.028385833740234376	0		4.35160302734375	0.21432052612304686	0		5.5491767578125	0.10531541442871094	0		-0.24070783996582032	5.9330634765625	0		
-0.06129875946044922	7.89268970489502E-4	0		0.39402081298828123	-2.316084716796875	0		-1.1289718017578125	-0.03767179489135742	0		-0.8586716918945313	-2.285844970703125	0		1.4150467529296875	-0.535760009765625	0		2.8778603515625	0.05900763320922851	0		4.37035205078125	0.2192971649169922	0		5.55517822265625	0.13003919982910156	0		-0.0894781723022461	5.96483154296875	0		
0.02048425483703613	0.009440265655517577	0		0.4268775939941406	-2.31387939453125	0		-1.0483067626953124	-0.03562393951416016	0		-0.8656951904296875	-2.2755966796875	0		1.4097371826171874	-0.520339111328125	0		2.8702412109375	0.03893998718261719	0		4.36487939453125	0.2046661834716797	0		5.55274755859375	0.11993994140625	0		-0.09983891296386718	5.955896484375	0		
-0.05598426055908203	4.5211300253868104E-4	0		0.42467953491210936	-2.31915185546875	0		-1.0985343017578124	-0.027644094467163087	0		-0.7969798583984375	-2.28750830078125	0		1.4440281982421874	-0.5344971313476562	0		2.867033447265625	0.04485833740234375	0		4.36762060546875	0.20298101806640625	0		5.565458984375	0.11769467163085938	0		-0.11029002380371093	5.94497265625	0		
0.023653894424438476	-0.001909680962562561	0		0.4515034484863281	-2.324859619140625	0		-1.057025390625	-0.03707192611694336	0		-0.8778674926757812	-2.2741357421875	0		1.446516357421875	-0.5351492919921875	0		2.865617919921875	0.03780408096313476	0		4.37035009765625	0.20137319946289062	0		5.5581611328125	0.1158511734008789	0		-0.23802630615234374	5.92388818359375	0		
-0.05563623809814453	0.004215991020202637	0		0.4264564208984375	-2.321739990234375	0		-1.050368896484375	-0.033978775024414064	0		-0.82911474609375	-2.284779541015625	0		1.4459241943359376	-0.5387180786132812	0		2.878566650390625	0.056587039947509764	0		4.37303271484375	0.19985243225097657	0		5.5608173828125	0.11396319580078125	0		-0.20422830200195313	5.945328125	0		
0.028822038650512697	-0.0022505779266357422	0		0.4303634338378906	-2.320052734375	0		-1.12180419921875	-0.03163274383544922	0		-0.8543064575195313	-2.289257568359375	0		1.416514892578125	-0.5267776489257813	0		2.8807919921875	0.03459809494018555	0		4.37973583984375	0.20436149597167969	0		5.56852783203125	0.12011109924316406	0		-0.08177539825439453	5.95531982421875	0		
-0.04352029418945313	0.010833748817443848	0		0.43421954345703123	-2.318342529296875	0		-1.0783182373046876	-0.02914484405517578	0		-0.7853684692382813	-2.283270263671875	0		1.459801025390625	-0.528975341796875	0		2.906462646484375	0.046298805236816405	0		4.37814306640625	0.19710382080078126	0		5.57587841796875	0.1103842544555664	0		-0.07771484375	5.955201171875	0		
0.028668216705322266	0.0015539419651031494	0		0.4319025573730469	-2.322506103515625	0		-1.0800457763671876	-0.03193037796020508	0		-0.8605829467773437	-2.28091015625	0		1.411837890625	-0.5386264038085937	0		2.8837900390625	0.04486701583862305	0		4.380521484375	0.19588615417480468	0		5.568236328125	0.10903402709960938	0		-0.07389598083496093	5.95509765625	0		
-0.041185596466064456	-3.36775004863739E-4	0		0.43355349731445314	-2.32270947265625	0		-1.050853759765625	-0.031242650985717775	0		-0.79793115234375	-2.2818486328125	0		1.454877197265625	-0.5407498168945313	0		2.88991845703125	0.04003127670288086	0		4.3827529296875	0.19477256774902343	0		5.57627783203125	0.09754649353027343	0		-0.21789169311523438	5.92350537109375	0		
0.0347413330078125	-0.006681183815002442	0		0.4330338134765625	-2.3258515625	0		-1.1168953857421875	-0.03393844985961914	0		-0.8692944946289063	-2.275513427734375	0		1.415809326171875	-0.5394402465820313	0		2.8898134765625	0.03136940574645996	0		4.376921875	0.19989521789550782	0		5.5676318359375	0.11446593475341797	0		-0.19846102905273438	5.9321904296875	0		
-0.04224967956542969	0.0036147561073303224	0		0.4385107116699219	-2.321071533203125	0		-1.0640499267578125	-0.03367203140258789	0		-0.8440882568359375	-2.2868251953125	0		1.4295625	-0.5389891967773438	0		2.9189873046875	0.04927144241333008	0		4.39080126953125	0.19877151489257813	0		5.588458984375	0.110989990234375	0		-0.1802958679199219	5.9419013671875	0		
-0.02364229202270508	0.0012786630392074584	0		0.44383160400390625	-2.316265869140625	0		-1.0993883056640625	-0.031881925582885745	0		-0.839813720703125	-2.284774658203125	0		1.428287109375	-0.529237060546875	0		2.883330810546875	0.03136005401611328	0		4.38351708984375	0.20010626220703126	0		5.58184375	0.09409817504882813	0		-0.07654606628417969	5.9441171875	0		
-0.03916978454589844	0.0035570108890533446	0		0.4408078918457031	-2.321291015625	0		-1.033968994140625	-0.03286318969726563	0		-0.7906460571289062	-2.279515625	0		1.461419677734375	-0.5420548095703125	0		2.896891845703125	0.03766032028198242	0		4.3816123046875	0.178436279296875	0		5.577470703125	0.10328483581542969	0		-0.07416166687011719	5.94410400390625	0		
-0.03794985961914062	0.003557526111602783	0		0.43965921020507814	-2.3233232421875	0		-1.0697305908203125	-0.031060863494873046	0		-0.8646880493164063	-2.2750712890625	0		1.4625614013671875	-0.5422694091796875	0		2.8918681640625	0.023349111557006835	0		4.391087890625	0.19065846252441407	0		5.578705078125	0.102480224609375	0		-0.0720901870727539	5.944109375	0		
-0.03508479690551758	-0.0044573359489440915	0		0.440370849609375	-2.323364501953125	0		-1.0727972412109374	-0.03483682632446289	0		-0.81919287109375	-2.28775146484375	0		1.422525146484375	-0.5407056884765625	0		2.910253662109375	0.04368595123291016	0		4.39212060546875	0.19011222839355468	0		5.5955087890625	0.08949697875976563	0		-0.17234153747558595	5.94396435546875	0		
-0.036129722595214846	0.0036154439449310304	0		0.41599459838867187	-2.3189296875	0		-1.0949324951171875	-0.031266324996948244	0		-0.8515095825195312	-2.28002978515625	0		1.4281654052734376	-0.5469222412109375	0		2.897800537109375	0.028627357482910155	0		4.397060546875	0.19557521057128907	0		5.5856923828125	0.10909222412109375	0		-0.18603530883789063	5.93429052734375	0		
0.04147381210327149	0.0012728170156478882	0		0.445392578125	-2.31944580078125	0		-1.0203319091796874	-0.033448875427246096	0		-0.8511029052734375	-2.279892822265625	0		1.474028076171875	-0.53183251953125	0		2.921669921875	0.04097054672241211	0		4.39360595703125	0.18926235961914062	0		5.58119287109375	0.10067933654785156	0		-0.05144998550415039	5.95294189453125	0		
-0.03008642578125	-3.475390076637268E-4	0		0.4436376953125	-2.321378662109375	0		-1.06680810546875	-0.030434194564819335	0		-0.8267674560546875	-2.277188720703125	0		1.46526513671875	-0.5427254028320313	0		2.893051025390625	0.035316261291503906	0		4.3941044921875	0.18895024108886718	0		5.59168212890625	0.10008174896240235	0		-0.06661294555664063	5.94430908203125	0		
0.04231245040893555	0.00141913104057312	0		0.4707798461914062	-2.32382177734375	0		-1.0294788818359375	-0.03194843292236328	0		-0.8286171264648438	-2.279005859375	0		1.465580810546875	-0.542750244140625	0		2.8844296875	0.03634992980957031	0		4.3824765625	0.18892738342285156	0		5.58204736328125	0.09993314361572266	0		-0.06581468963623047	5.94439794921875	0		
-0.02947697639465332	-1.615229994058609E-4	0		0.4149329833984375	-2.320724609375	0		-1.0972894287109376	-0.034534854888916014	0		-0.8176563720703125	-2.287056884765625	0		1.465800048828125	-0.5427449340820313	0		2.9043876953125	0.01990071678161621	0		4.38759423828125	0.18065811157226563	0		5.598083984375	0.08738664245605468	0		-0.18046099853515624	5.93061669921875	0		
0.052571491241455076	-0.007561327934265137	0		0.45282955932617186	-2.329336181640625	0		-1.093045166015625	-0.030441804885864256	0		-0.8406185302734375	-2.28747998046875	0		1.4369862060546874	-0.5401783447265625	0		2.914928955078125	0.03966921997070313	0		4.39601513671875	0.1933863983154297	0		5.602408203125	0.09512565612792968	0		-0.17997496032714844	5.93073583984375	0		
-0.02206338310241699	0.006940264225006104	0		0.45011932373046876	-2.314182861328125	0		-1.0559588623046876	-0.0319583911895752	0		-0.8094437255859375	-2.278898193359375	0		1.475235107421875	-0.5318241577148437	0		2.893954345703125	0.03505255126953125	0		4.40604150390625	0.1881329803466797	0		5.58260205078125	0.09937316131591797	0		-0.06334961318969727	5.94371728515625	0		
0.04784508514404297	-0.00222448205947876	0		0.4439813232421875	-2.32095654296875	0		-1.0658529052734376	-0.02960890007019043	0		-0.8623687744140625	-2.27376123046875	0		1.46608349609375	-0.5425759887695313	0		2.889154296875	0.042175884246826174	0		4.3951181640625	0.18831779479980468	0		5.582673828125	0.09931478118896485	0		-0.06308153915405273	5.9438486328125	0		
-0.02908553123474121	3.389630019664764E-4	0		0.44396261596679687	-2.320830078125	0		-1.069889404296875	-0.033370922088623044	0		-0.7816783447265625	-2.29010205078125	0		1.4661080322265625	-0.542474365234375	0		2.894062255859375	0.035151451110839844	0		4.3869208984375	0.1754988250732422	0		5.59752587890625	0.0890400390625	0		-0.0628994903564453	5.9439873046875	0		
0.039920162200927735	-7.969020009040833E-4	0		0.44394430541992186	-2.32069287109375	0		-1.059892578125	-0.034395790100097655	0		-0.8654404907226563	-2.2753896484375	0		1.4661171875	-0.54235302734375	0		2.900339111328125	0.049136951446533204	0		4.38729345703125	0.19457171630859374	0		5.587880859375	0.10727994537353516	0		-0.04760708236694336	5.95385205078125	0		
-0.029061855316162108	6.330249905586243E-4	0		0.4527831726074219	-2.32871240234375	0		-1.05988671875	-0.034238502502441405	0		-0.7698019409179687	-2.2950126953125	0		1.4282186279296876	-0.536510009765625	0		2.899955810546875	0.028268489837646484	0		4.39929931640625	0.19446586608886718	0		5.60269921875	0.09711122131347656	0		-0.17994245910644532	5.9344560546875	0		
0.04790796661376953	-0.0016424360275268555	0		0.4480263671875	-2.31546826171875	0		-1.061736328125	-0.026048807144165038	0		-0.8505084838867187	-2.27835791015625	0		1.4753233642578125	-0.5312301635742187	0		2.893311279296875	0.04754807662963867	0		4.39518994140625	0.1886936798095703	0		5.59273974609375	0.09944872283935546	0		-0.06177397537231445	5.94241748046875	0		
-0.03398268127441406	0.0050353589057922366	0		0.4729458312988281	-2.32077197265625	0		-1.0328685302734375	-0.03343547439575195	0		-0.789502685546875	-2.279338134765625	0		1.46612646484375	-0.5418955688476562	0		2.9151796875	0.04031539916992188	0		4.39519140625	0.188877197265625	0		5.59274169921875	0.0996395263671875	0		-0.047587467193603517	5.95431201171875	0		
0.04791696929931641	-0.0013264249563217164	0		0.4439841613769531	-2.3200703125	0		-1.069855224609375	-0.03260280990600586	0		-0.8175947875976562	-2.28566845703125	0		1.4661392822265624	-0.5417201538085937	0		2.893319580078125	0.047914291381835936	0		4.38319775390625	0.18930894470214843	0		5.5885625	0.08993846893310548	0		-0.06283259201049805	5.94475	0		
-0.02413280487060547	-0.0038323540687561037	0		0.4440329284667969	-2.319904541015625	0		-1.0639365234375	-0.03757156753540039	0		-0.8195833129882812	-2.2874853515625	0		1.4251854248046876	-0.5397788696289062	0		2.908938720703125	0.026825870513916016	0		4.3921865234375	0.18837042236328125	0		5.5985341796875	0.08800071716308594	0		-0.17819166564941405	5.931041015625	0		
0.047945323944091796	-0.0010090980529785156	0		0.42122674560546874	-2.312314453125	0		-1.0968397216796875	-0.03282444381713867	0		-0.8405015258789063	-2.285955322265625	0		1.4451900634765624	-0.5409647827148437	0		2.90641796875	0.05208933258056641	0		4.39631005859375	0.19453565979003906	0		5.59688232421875	0.1062978057861328	0		-0.045884521484375	5.95174755859375	0		
